<svg width="335" height="120" viewBox="0 0 335 120" fill="none" xmlns="http://www.w3.org/2000/svg">
<path d="M329.318 77.3049L330.276 77.0197L329.318 77.3049ZM214.308 74.2881L214.296 75.2881L214.308 74.2881ZM185.295 92.0985C185.398 92.6409 185.922 92.9966 186.465 92.8929L195.304 91.2026C195.847 91.0989 196.203 90.575 196.099 90.0326C195.995 89.4901 195.471 89.1345 194.929 89.2382L187.071 90.7406L185.569 82.883C185.465 82.3405 184.941 81.9849 184.399 82.0886C183.856 82.1923 183.501 82.7162 183.604 83.2586L185.295 92.0985ZM297.022 57.0709C301.282 57.1575 308.262 59.2887 314.66 62.9733C321.072 66.6662 326.625 71.7612 328.359 77.5902L330.276 77.0197C328.321 70.4496 322.219 65.0189 315.658 61.2402C309.082 57.4532 301.77 55.167 297.063 55.0713L297.022 57.0709ZM328.359 77.5902C330.523 84.8606 327.509 91.3292 321.469 95.0969C315.4 98.8822 306.228 99.9417 296.252 96.0508L295.525 97.9141C305.99 101.996 315.838 100.966 322.527 96.7939C329.244 92.6044 332.725 85.2481 330.276 77.0197L328.359 77.5902ZM296.252 96.0508C291.182 94.0732 289.99 92.0371 290.04 90.664C290.066 89.9334 290.428 89.156 291.134 88.3821C291.837 87.6108 292.831 86.9031 293.974 86.3359C296.305 85.1786 298.959 84.745 300.624 85.2531C301.412 85.4934 301.898 85.9131 302.127 86.5025C302.371 87.13 302.403 88.15 301.824 89.7298L303.702 90.418C304.368 88.5989 304.481 87.0365 303.992 85.7781C303.488 84.4818 302.428 83.7122 301.208 83.3401C298.858 82.6232 295.649 83.2716 293.085 84.5444C291.779 85.1922 290.566 86.0365 289.656 87.0344C288.749 88.0296 288.09 89.2385 288.041 90.5915C287.94 93.3855 290.376 95.9055 295.525 97.9141L296.252 96.0508ZM301.824 89.7298C299.426 96.2746 294.971 100.971 288.367 103C281.72 105.043 272.752 104.426 261.29 99.9981L260.57 101.864C272.263 106.382 281.72 107.135 288.955 104.912C296.234 102.675 301.118 97.4689 303.702 90.418L301.824 89.7298ZM261.29 99.9981C249.923 95.6061 243.864 89.1619 237.789 83.6168C234.758 80.8494 231.7 78.2892 227.989 76.4138C224.262 74.53 219.918 73.3572 214.32 73.2882L214.296 75.2881C219.604 75.3534 223.646 76.4598 227.087 78.1988C230.545 79.9462 233.438 82.3525 236.441 85.0939C242.436 90.5664 248.782 97.3093 260.57 101.864L261.29 99.9981ZM214.32 73.2882C212.758 73.269 210.661 73.6972 208.321 74.4827C205.963 75.2744 203.293 76.4513 200.566 77.9835C195.122 81.0428 189.38 85.5604 185.449 91.3489L187.104 92.4724C190.811 87.0123 196.284 82.6842 201.546 79.7271C204.173 78.2512 206.728 77.1273 208.958 76.3787C211.206 75.6241 213.058 75.2728 214.296 75.2881L214.32 73.2882Z" fill="#FF5129"/>
<rect x="2.43359" width="322.465" height="53.31" rx="9.11625" transform="rotate(2 2.43359 0)" fill="#FF5129"/>
<rect x="2.43359" width="322.465" height="53.31" rx="9.11625" transform="rotate(2 2.43359 0)" fill="url(#paint0_linear_2002_1789)"/>
<defs>
<linearGradient id="paint0_linear_2002_1789" x1="-30.1507" y1="0.915668" x2="325.891" y2="25.693" gradientUnits="userSpaceOnUse">
<stop stop-color="#5229A1"/>
<stop offset="1" stop-color="#FF5129"/>
</linearGradient>
</defs>
</svg>
