<svg width="617" height="175" viewBox="0 0 617 175" fill="none" xmlns="http://www.w3.org/2000/svg">
<path d="M610.5 91L611.335 90.449L610.5 91ZM332.5 129L332.647 129.989L332.5 129ZM272.544 173.793C272.706 174.321 273.265 174.618 273.793 174.456L282.398 171.817C282.926 171.655 283.222 171.096 283.061 170.568C282.899 170.04 282.339 169.743 281.811 169.905L274.163 172.251L271.817 164.602C271.655 164.074 271.096 163.778 270.568 163.939C270.04 164.101 269.743 164.661 269.905 165.189L272.544 173.793ZM522.901 63.5202C533.549 62.013 551.644 63.5043 568.942 68.1831C577.579 70.5191 585.976 73.6394 593.116 77.5497C600.265 81.4649 606.092 86.1383 609.665 91.551L611.335 90.449C607.515 84.6639 601.383 79.7968 594.077 75.7956C586.762 71.7895 578.208 68.6174 569.464 66.2524C552.001 61.529 533.62 59.983 522.62 61.5399L522.901 63.5202ZM609.665 91.551C614.148 98.3399 615.259 105.181 613.68 111.517C612.096 117.875 607.775 123.836 601.19 128.768C588.011 138.637 565.925 144.243 539.641 140.51L539.359 142.49C566.028 146.278 588.685 140.631 602.389 130.369C609.245 125.234 613.899 118.91 615.621 112C617.348 105.068 616.094 97.6572 611.335 90.449L609.665 91.551ZM539.641 140.51C533.077 139.578 528.534 138.209 525.56 136.627C522.588 135.046 521.306 133.323 520.981 131.712C520.654 130.087 521.237 128.276 522.663 126.393C524.083 124.517 526.258 122.685 528.844 121.094C534.041 117.898 540.619 115.843 545.458 116.232C547.865 116.425 549.695 117.207 550.789 118.581C551.874 119.942 552.407 122.1 551.753 125.429L553.716 125.814C554.436 122.144 553.931 119.314 552.354 117.335C550.787 115.368 548.332 114.456 545.618 114.238C540.217 113.804 533.214 116.058 527.796 119.391C525.075 121.064 522.684 123.051 521.068 125.186C519.458 127.313 518.536 129.703 519.021 132.107C519.508 134.524 521.356 136.656 524.621 138.393C527.884 140.129 532.685 141.542 539.359 142.49L539.641 140.51ZM551.753 125.429C549.074 139.078 540.445 150.101 525.051 156.718C509.611 163.356 487.336 165.565 457.457 161.399L457.181 163.38C487.249 167.572 509.935 165.393 525.841 158.556C541.795 151.698 550.9 140.159 553.716 125.814L551.753 125.429ZM457.457 161.399C427.668 157.247 409.755 147.033 392.581 138.74C375.356 130.422 358.924 124.074 332.353 128.011L332.647 129.989C358.654 126.136 374.658 132.306 391.711 140.541C408.815 148.8 427.022 159.176 457.181 163.38L457.457 161.399ZM332.353 128.011C325.388 129.043 313.741 134.137 302.248 141.987C290.737 149.85 279.221 160.586 272.617 173.031L274.383 173.969C280.779 161.914 292.013 151.4 303.377 143.638C314.759 135.863 326.112 130.957 332.647 129.989L332.353 128.011Z" fill="#FF5129"/>
<rect x="3.07031" y="0.34082" width="525" height="88" rx="15" transform="rotate(2 3.07031 0.34082)" fill="#FF5129"/>
<rect x="3.07031" y="0.34082" width="525" height="88" rx="15" transform="rotate(2 3.07031 0.34082)" fill="url(#paint0_linear_2002_8330)"/>
<defs>
<linearGradient id="paint0_linear_2002_8330" x1="-49.9796" y1="1.85233" x2="529.762" y2="41.6439" gradientUnits="userSpaceOnUse">
<stop stop-color="#5229A1"/>
<stop offset="1" stop-color="#FF5129"/>
</linearGradient>
</defs>
</svg>
